<?xml version="1.0" encoding="UTF-8" standalone="no"?>
<!DOCTYPE svg PUBLIC "-//W3C//DTD SVG 1.1//EN" "http://www.w3.org/Graphics/SVG/1.1/DTD/svg11.dtd">
<svg xmlns="http://www.w3.org/2000/svg" version="1.1" viewBox="0 0 1024 1024" width="1024.0pt" height="1024.0pt">
<path d="M 0.00 0.00 L 1024.00 0.00 L 1024.00 1024.00 L 0.00 1024.00 L 0.00 0.00 Z" fill="#ffffff" />
<path d="M 311.00 158.99 C 468.01 158.98 625.03 159.01 782.04 158.99 C 795.83 158.92 808.92 170.10 811.35 183.64 C 812.39 188.19 811.92 193.29 812.00 198.00 C 812.01 364.01 811.98 530.03 812.01 696.04 C 811.89 706.40 802.41 715.94 792.04 716.03 C 636.02 716.00 480.00 716.02 323.98 716.01 C 314.13 716.35 304.50 718.20 295.64 722.63 C 289.89 725.33 285.15 729.25 280.44 733.43 C 266.98 746.30 260.74 765.85 264.95 784.10 C 268.32 798.56 277.72 810.88 290.06 818.94 C 298.07 823.95 307.53 826.83 316.98 827.00 C 461.33 827.00 605.68 827.00 750.03 827.00 C 751.57 826.98 753.20 827.03 754.70 826.67 C 760.17 825.19 762.88 820.50 762.94 815.04 C 763.09 796.06 762.89 777.00 763.04 758.03 C 763.85 748.86 771.80 742.02 781.03 742.88 C 790.28 742.42 797.31 751.16 797.09 759.96 C 797.19 782.63 797.14 805.32 797.10 828.00 C 797.22 833.91 796.40 840.39 793.77 845.75 C 789.35 854.20 781.41 860.71 772.18 863.20 C 767.46 864.68 761.94 864.33 757.00 864.40 C 611.33 864.36 465.67 864.40 320.00 864.36 C 312.40 864.33 304.72 864.42 297.15 863.90 C 286.09 862.49 275.28 858.92 265.57 853.45 C 247.54 843.12 233.25 826.05 226.71 806.29 C 223.30 795.91 221.66 784.93 221.99 774.00 C 222.01 596.65 221.99 419.30 222.00 241.95 C 222.53 232.85 224.06 223.68 227.01 215.04 C 236.67 188.76 259.80 167.50 287.20 161.16 C 294.94 159.34 303.07 158.84 311.00 158.99 Z" fill="#1d1d1b" />
<path d="M 564.95 228.02 C 591.64 227.99 618.35 227.98 645.04 228.02 C 647.54 227.95 649.66 228.83 651.49 230.50 C 653.63 233.12 653.41 236.94 651.75 239.75 C 648.47 245.76 644.90 251.62 641.57 257.60 C 621.04 292.55 600.43 328.22 579.88 362.88 C 578.81 364.72 578.66 366.71 579.07 368.76 C 580.19 370.99 582.52 372.13 584.96 372.03 C 612.31 372.03 639.70 371.97 667.04 372.03 C 671.17 371.74 674.69 375.03 675.01 379.07 C 675.26 381.99 673.60 383.80 672.01 386.01 C 654.56 405.53 635.40 427.05 617.79 446.80 C 600.38 466.45 583.24 486.19 565.83 505.85 C 526.14 551.30 486.70 595.93 447.27 641.29 C 445.43 643.32 443.72 645.89 441.41 647.39 C 437.65 649.03 433.47 648.42 431.39 644.57 C 429.57 639.37 432.57 635.12 434.56 630.55 C 456.55 582.23 478.92 534.13 500.73 485.73 C 502.55 481.11 506.31 476.33 504.86 471.26 C 503.23 468.61 501.18 467.55 498.05 467.59 C 472.37 467.78 446.65 467.69 420.96 467.75 C 418.22 467.70 415.67 467.47 413.72 465.33 C 411.31 463.56 411.76 460.05 412.60 457.57 C 414.67 452.70 418.09 448.36 420.87 443.87 C 442.85 409.82 464.59 375.61 486.53 341.53 C 502.50 316.46 518.18 291.21 534.13 266.13 C 541.10 255.36 547.57 244.30 554.58 233.56 C 556.81 230.00 560.77 227.93 564.95 228.02 Z" fill="#ffffff" />
</svg>